<?xml version="1.0" encoding="utf-8" ?>
<svg xmlns="http://www.w3.org/2000/svg" xmlns:xlink="http://www.w3.org/1999/xlink" width="1024" height="1024">
	<path fill="#88A5FE" d="M564.147 252.238C578.577 258.712 593.542 268.246 607.456 276.032C545.375 340.328 519.517 415.748 513.912 503.72C521.894 492.634 529.177 480.959 536.787 469.605C546.241 455.5 555.977 441.461 564.539 426.787C590.686 381.975 608.687 331.125 614.201 279.392C620.006 280.996 625.73 283.193 631.458 285.077C638.757 287.477 646.126 289.632 653.408 292.093C655.281 310.426 660.102 326.719 671.614 341.435C687.385 361.596 706.978 368.68 731.517 371.705C736.744 384.837 739.894 398.793 745.583 411.765C730.89 413.455 716.079 415.006 701.513 417.599C648.307 426.771 597.771 447.536 553.488 478.422C541.08 486.965 529.345 496.522 517.425 505.722C522.911 504.912 528.599 504.883 534.137 504.468C544.756 503.672 555.327 502.705 565.859 501.103C618.079 493.161 669.874 475.308 713.775 445.542C725.557 437.554 737.007 428.243 747.771 418.93C755.505 432.014 762.307 445.793 769.743 459.07C758.95 472.839 751.588 487.855 749.912 505.446C747.878 526.801 755.519 547.782 769.041 564.173C761.653 578.175 752.916 591.462 745.799 605.636C726.745 590.47 707.914 575.655 687.168 562.781C635.348 531.281 576.578 513.004 516.033 509.559C573.642 557.767 618.908 586.656 693.023 603.377C709.221 607.032 725.76 608.304 741.939 611.776C737.125 625.725 733.102 640.01 728.019 653.848C713.385 654.328 698.455 659.346 686.662 668.029C665.278 683.775 656.738 704.784 652.761 730.234C647.804 732.386 642.116 733.72 636.95 735.326C628.555 737.965 620.184 740.681 611.839 743.473C609.929 735.561 608.976 727.238 607.508 719.217C605.051 706.174 602.132 693.221 598.755 680.384C587.229 638.537 569.543 598.636 546.278 561.991C535.913 545.402 524.472 529.581 513.926 513.14C514.558 519.189 514.677 525.287 515.253 531.345C516.728 546.59 518.75 561.778 521.315 576.878C532.23 639.153 559.203 701.737 604.247 747.03C597.233 750.764 568.185 771.143 563.623 771.684C551.853 761.46 537.78 754.078 522.189 752.014C496.65 748.633 479.225 756.905 459.455 772.033C446.547 763.747 433.588 755.541 420.579 747.415C430.877 734.525 441.706 722.357 451.017 708.663C491.281 649.446 505.356 582.868 510.123 512.482C455.316 587.734 426.4 651.102 412.258 743.722C398.631 739.096 384.864 734.898 371.222 730.307C369.869 712.768 363.197 696.06 352.097 682.413C337.383 664.652 318.313 655.933 295.648 653.788C290.382 640.065 286.402 625.523 281.689 611.564C294.025 609.769 306.504 608.409 318.755 606.112C372.003 596.126 418.051 576.235 462.12 544.787C477.623 533.723 491.796 520.855 507.277 509.845C439.716 511.999 373.593 536.911 318.298 575.096C308.672 581.762 299.312 588.805 290.242 596.21C286.379 599.351 282.749 602.773 278.834 605.843C270.661 592.121 262.578 578.345 254.587 564.516C264.609 551.763 271.545 537.463 273.57 521.246C276.437 498.288 268.044 477.035 254.131 459.121C261.513 445.773 268.73 432.334 275.779 418.807C287.991 428.293 299.597 438.166 312.486 446.801C356.069 476 407.212 492.648 458.717 500.778C467.562 502.174 476.318 503.172 485.245 503.875C492.526 504.448 499.999 504.677 507.198 505.921L508.059 506.074C502.338 502.382 497.167 497.668 491.742 493.544C481.947 486.012 471.868 478.857 461.527 472.094C404.416 434.82 345.503 418.315 278.207 411.877C283.771 399.095 286.843 385.122 292.205 372.21C297.437 370.912 302.874 370.302 308.157 369.195C321.019 366.558 332.952 360.562 342.745 351.818C360.034 336.443 369.787 315.266 371.207 292.257C383.848 287.294 397.079 283.512 409.887 278.921C410.615 289.347 413.175 299.997 415.218 310.25C430.43 386.593 466.802 440.606 510.045 503.337C509.987 487.712 507.412 471.302 504.951 455.906C493.466 384.055 465.808 328.233 415.572 275.72C430.401 269.308 444.482 259.952 458.842 252.435C461.852 253.59 466.725 258.035 469.675 260.074C479.306 266.733 493.516 270.604 505.025 271.737C527.695 273.969 546.914 266.489 564.147 252.238Z"/>
	<path fill="#88A5FE" d="M145.015 506.01C148.195 479.007 171.534 458.943 198.709 459.852C225.884 460.761 247.83 482.339 249.199 509.494C250.567 536.65 230.901 560.325 203.956 563.962C177.01 567.598 151.772 549.983 145.893 523.436C144.627 517.717 144.33 511.827 145.015 506.01Z"/>
	<path fill="#88A5FE" d="M508.252 139.356C537.005 137.083 562.171 158.514 564.506 187.261C566.842 216.009 545.465 241.221 516.722 243.619C487.892 246.024 462.586 224.567 460.243 195.732C457.901 166.896 479.412 141.636 508.252 139.356Z"/>
	<path fill="#88A5FE" d="M821.317 460.156C849.903 457.127 875.558 477.779 878.704 506.353C881.85 534.926 861.302 560.665 832.742 563.928C804.016 567.209 778.095 546.517 774.931 517.778C771.767 489.039 792.565 463.202 821.317 460.156Z"/>
	<path fill="#88A5FE" d="M344.546 305.973C338.381 331.525 314.152 348.487 288.032 345.535C261.913 342.583 242.08 320.642 241.773 294.358C241.467 268.074 260.782 245.676 286.825 242.115C312.868 238.555 337.487 254.946 344.246 280.348C346.478 288.731 346.58 297.539 344.546 305.973Z"/>
	<path fill="#88A5FE" d="M725.054 241.946C753.693 239.142 779.184 260.083 781.993 288.722C784.803 317.361 763.867 342.856 735.228 345.67C706.583 348.486 681.079 327.543 678.269 298.897C675.459 270.25 696.407 244.751 725.054 241.946Z"/>
	<path fill="#88A5FE" d="M468.6 858.696C461.542 849.57 459.344 835.225 460.718 824.029C462.297 810.393 469.258 797.953 480.055 789.476C491.04 780.834 505.067 777.031 518.913 778.941C532.91 780.777 545.592 788.135 554.133 799.376C562.238 809.976 565.793 823.365 564.014 836.589C562.124 850.701 554.638 863.461 543.241 871.995C531.938 880.38 517.763 883.922 503.844 881.842C501.689 881.521 499.429 881.093 497.432 880.212C496.972 880.121 496.51 880.035 496.057 879.913C485.199 876.986 474.331 868.274 468.6 858.696Z"/>
	<path fill="#88A5FE" d="M678.802 722.896C682.762 696.046 706.712 676.761 733.788 678.621C760.865 680.481 781.954 702.859 782.205 729.998C782.456 757.138 761.786 779.903 734.749 782.264C707.711 784.625 683.408 765.788 678.951 739.016C678.063 733.683 678.013 728.244 678.802 722.896Z"/>
	<path fill="#88A5FE" d="M289.868 678.707C318.501 676.483 343.505 697.915 345.687 726.55C347.868 755.186 326.399 780.159 297.76 782.298C269.181 784.433 244.272 763.019 242.095 734.443C239.918 705.867 261.295 680.926 289.868 678.707Z"/>
</svg>
